<svg xmlns="http://www.w3.org/2000/svg" xmlns:xlink="http://www.w3.org/1999/xlink" width="377" zoomAndPan="magnify" viewBox="0 0 283.5 283.500005" height="377" preserveAspectRatio="xMidYMid meet" version="1.0"><defs><g/><clipPath id="b373735ecc"><path d="M 13.605469 103.878906 L 269.488281 103.878906 L 269.488281 179.085938 L 13.605469 179.085938 Z M 13.605469 103.878906 " clip-rule="nonzero"/></clipPath><clipPath id="40166ccb4d"><path d="M 231.757812 103.878906 C 252.527344 103.878906 269.363281 120.714844 269.363281 141.484375 C 269.363281 162.25 252.527344 179.085938 231.757812 179.085938 L 51.207031 179.085938 C 30.441406 179.085938 13.605469 162.25 13.605469 141.484375 C 13.605469 120.714844 30.441406 103.878906 51.207031 103.878906 Z M 231.757812 103.878906 " clip-rule="nonzero"/></clipPath></defs><g clip-path="url(#b373735ecc)"><g clip-path="url(#40166ccb4d)"><path fill="#9f9f9f" d="M 13.605469 103.878906 L 269.488281 103.878906 L 269.488281 179.085938 L 13.605469 179.085938 Z M 13.605469 103.878906 " fill-opacity="1" fill-rule="nonzero"/></g></g><g fill="#000000" fill-opacity="1"><g transform="translate(32.284484, 148.220855)"><g><path d="M 12.4375 0 C 12.132812 0 11.957031 -0.140625 11.90625 -0.421875 C 11.875 -0.660156 11.8125 -1.003906 11.71875 -1.453125 C 11.632812 -1.898438 11.535156 -2.453125 11.421875 -3.109375 C 11.367188 -3.390625 11.203125 -3.53125 10.921875 -3.53125 L 6.234375 -3.53125 C 5.953125 -3.53125 5.773438 -3.390625 5.703125 -3.109375 C 5.585938 -2.453125 5.488281 -1.898438 5.40625 -1.453125 C 5.332031 -1.003906 5.269531 -0.660156 5.21875 -0.421875 C 5.1875 -0.140625 5.019531 0 4.71875 0 L 1.6875 0 C 1.507812 0 1.367188 -0.0625 1.265625 -0.1875 C 1.160156 -0.320312 1.132812 -0.46875 1.1875 -0.625 C 1.332031 -1.226562 1.566406 -2.242188 1.890625 -3.671875 C 2.222656 -5.097656 2.625 -6.898438 3.09375 -9.078125 C 3.59375 -11.421875 3.976562 -13.320312 4.25 -14.78125 C 4.53125 -16.238281 4.710938 -17.226562 4.796875 -17.75 C 4.847656 -18.03125 5.015625 -18.171875 5.296875 -18.171875 L 11.828125 -18.171875 C 12.128906 -18.171875 12.304688 -18.03125 12.359375 -17.75 C 12.441406 -17.226562 12.617188 -16.238281 12.890625 -14.78125 C 13.171875 -13.320312 13.554688 -11.421875 14.046875 -9.078125 C 14.503906 -6.898438 14.898438 -5.097656 15.234375 -3.671875 C 15.566406 -2.242188 15.8125 -1.226562 15.96875 -0.625 C 16 -0.46875 15.960938 -0.320312 15.859375 -0.1875 C 15.753906 -0.0625 15.625 0 15.46875 0 Z M 6.984375 -6.28125 L 10.171875 -6.28125 C 10.328125 -6.28125 10.457031 -6.335938 10.5625 -6.453125 C 10.664062 -6.578125 10.703125 -6.71875 10.671875 -6.875 C 10.597656 -7.21875 10.519531 -7.578125 10.4375 -7.953125 C 10.363281 -8.328125 10.285156 -8.703125 10.203125 -9.078125 C 9.941406 -10.304688 9.703125 -11.414062 9.484375 -12.40625 C 9.265625 -13.40625 9.070312 -14.269531 8.90625 -15 C 8.863281 -15.175781 8.753906 -15.265625 8.578125 -15.265625 C 8.398438 -15.265625 8.285156 -15.175781 8.234375 -15 C 8.078125 -14.269531 7.882812 -13.40625 7.65625 -12.40625 C 7.425781 -11.414062 7.179688 -10.304688 6.921875 -9.078125 C 6.835938 -8.703125 6.753906 -8.328125 6.671875 -7.953125 C 6.597656 -7.578125 6.53125 -7.21875 6.46875 -6.875 C 6.425781 -6.71875 6.457031 -6.578125 6.5625 -6.453125 C 6.664062 -6.335938 6.804688 -6.28125 6.984375 -6.28125 Z M 6.984375 -6.28125 "/></g></g></g><g fill="#000000" fill-opacity="1"><g transform="translate(49.43509, 148.220855)"><g><path d="M 5.171875 -3.265625 C 5.171875 -3.128906 5.21875 -3.007812 5.3125 -2.90625 C 5.40625 -2.800781 5.519531 -2.75 5.65625 -2.75 L 10.71875 -2.75 C 10.851562 -2.75 10.972656 -2.695312 11.078125 -2.59375 C 11.179688 -2.488281 11.234375 -2.367188 11.234375 -2.234375 L 11.234375 -0.515625 C 11.234375 -0.378906 11.179688 -0.257812 11.078125 -0.15625 C 10.972656 -0.0507812 10.851562 0 10.71875 0 L 1.8125 0 C 1.675781 0 1.554688 -0.0507812 1.453125 -0.15625 C 1.347656 -0.257812 1.296875 -0.378906 1.296875 -0.515625 L 1.296875 -17.640625 C 1.296875 -17.785156 1.347656 -17.910156 1.453125 -18.015625 C 1.554688 -18.117188 1.675781 -18.171875 1.8125 -18.171875 L 4.859375 -18.171875 C 5.015625 -18.171875 5.140625 -18.117188 5.234375 -18.015625 C 5.328125 -17.910156 5.375 -17.785156 5.375 -17.640625 C 5.375 -17.179688 5.359375 -16.453125 5.328125 -15.453125 C 5.304688 -14.460938 5.285156 -13.300781 5.265625 -11.96875 C 5.253906 -10.632812 5.234375 -9.21875 5.203125 -7.71875 C 5.179688 -6.21875 5.171875 -4.734375 5.171875 -3.265625 Z M 5.171875 -3.265625 "/></g></g></g><g fill="#000000" fill-opacity="1"><g transform="translate(61.837494, 148.220855)"><g><path d="M 13.34375 0 L 10.046875 0 C 9.910156 0 9.789062 -0.0507812 9.6875 -0.15625 C 9.582031 -0.257812 9.53125 -0.378906 9.53125 -0.515625 L 9.53125 -4.515625 C 9.53125 -4.910156 9.46875 -5.296875 9.34375 -5.671875 C 9.21875 -6.054688 8.992188 -6.375 8.671875 -6.625 C 8.359375 -6.875 7.914062 -7 7.34375 -7 L 5.734375 -7 C 5.597656 -7 5.476562 -6.945312 5.375 -6.84375 C 5.269531 -6.75 5.226562 -6.628906 5.25 -6.484375 C 5.25 -4.960938 5.257812 -3.695312 5.28125 -2.6875 C 5.3125 -1.6875 5.332031 -0.960938 5.34375 -0.515625 C 5.34375 -0.378906 5.296875 -0.257812 5.203125 -0.15625 C 5.109375 -0.0507812 4.984375 0 4.828125 0 L 1.8125 0 C 1.65625 0 1.53125 -0.0507812 1.4375 -0.15625 C 1.34375 -0.257812 1.296875 -0.378906 1.296875 -0.515625 C 1.316406 -1.085938 1.34375 -2.09375 1.375 -3.53125 C 1.40625 -4.976562 1.421875 -6.828125 1.421875 -9.078125 C 1.421875 -11.347656 1.40625 -13.203125 1.375 -14.640625 C 1.34375 -16.078125 1.316406 -17.078125 1.296875 -17.640625 C 1.296875 -17.785156 1.34375 -17.910156 1.4375 -18.015625 C 1.53125 -18.117188 1.65625 -18.171875 1.8125 -18.171875 L 7.453125 -18.171875 C 8.296875 -18.171875 9.097656 -18.09375 9.859375 -17.9375 C 10.617188 -17.78125 11.289062 -17.5 11.875 -17.09375 C 12.46875 -16.695312 12.929688 -16.144531 13.265625 -15.4375 C 13.609375 -14.726562 13.78125 -13.820312 13.78125 -12.71875 C 13.78125 -11.695312 13.550781 -10.851562 13.09375 -10.1875 C 12.632812 -9.519531 12.039062 -8.992188 11.3125 -8.609375 C 11.25 -8.578125 11.21875 -8.519531 11.21875 -8.4375 C 11.21875 -8.351562 11.257812 -8.285156 11.34375 -8.234375 C 12 -7.921875 12.539062 -7.460938 12.96875 -6.859375 C 13.40625 -6.265625 13.625 -5.484375 13.625 -4.515625 C 13.625 -3.578125 13.648438 -2.773438 13.703125 -2.109375 C 13.753906 -1.441406 13.804688 -0.929688 13.859375 -0.578125 C 13.878906 -0.421875 13.835938 -0.285156 13.734375 -0.171875 C 13.628906 -0.0546875 13.5 0 13.34375 0 Z M 7.5 -15.421875 L 5.78125 -15.421875 C 5.644531 -15.421875 5.523438 -15.367188 5.421875 -15.265625 C 5.316406 -15.171875 5.265625 -15.054688 5.265625 -14.921875 C 5.265625 -14.296875 5.253906 -13.597656 5.234375 -12.828125 C 5.222656 -12.054688 5.21875 -11.207031 5.21875 -10.28125 C 5.21875 -10.125 5.269531 -10 5.375 -9.90625 C 5.476562 -9.8125 5.597656 -9.765625 5.734375 -9.765625 L 7.5 -9.765625 C 8.070312 -9.765625 8.515625 -9.925781 8.828125 -10.25 C 9.148438 -10.582031 9.375 -10.976562 9.5 -11.4375 C 9.625 -11.894531 9.6875 -12.320312 9.6875 -12.71875 C 9.6875 -13.40625 9.554688 -13.941406 9.296875 -14.328125 C 9.046875 -14.722656 8.753906 -15.003906 8.421875 -15.171875 C 8.085938 -15.335938 7.78125 -15.421875 7.5 -15.421875 Z M 7.5 -15.421875 "/></g></g></g><g fill="#000000" fill-opacity="1"><g transform="translate(76.990223, 148.220855)"><g><path d="M 13.078125 -15.9375 C 13.078125 -15.800781 13.03125 -15.679688 12.9375 -15.578125 C 12.84375 -15.472656 12.71875 -15.421875 12.5625 -15.421875 L 5.78125 -15.421875 C 5.644531 -15.421875 5.523438 -15.367188 5.421875 -15.265625 C 5.316406 -15.171875 5.265625 -15.054688 5.265625 -14.921875 C 5.265625 -14.390625 5.257812 -13.789062 5.25 -13.125 C 5.25 -12.46875 5.238281 -11.753906 5.21875 -10.984375 C 5.21875 -10.835938 5.269531 -10.710938 5.375 -10.609375 C 5.476562 -10.503906 5.597656 -10.453125 5.734375 -10.453125 L 11.21875 -10.453125 C 11.351562 -10.453125 11.472656 -10.398438 11.578125 -10.296875 C 11.679688 -10.191406 11.734375 -10.070312 11.734375 -9.9375 L 11.734375 -8.234375 C 11.734375 -8.085938 11.679688 -7.960938 11.578125 -7.859375 C 11.472656 -7.753906 11.351562 -7.703125 11.21875 -7.703125 L 5.734375 -7.703125 C 5.597656 -7.703125 5.476562 -7.648438 5.375 -7.546875 C 5.269531 -7.441406 5.21875 -7.320312 5.21875 -7.1875 C 5.238281 -6.40625 5.25 -5.6875 5.25 -5.03125 C 5.257812 -4.375 5.265625 -3.78125 5.265625 -3.25 C 5.265625 -3.101562 5.316406 -2.984375 5.421875 -2.890625 C 5.523438 -2.796875 5.644531 -2.75 5.78125 -2.75 L 12.5625 -2.75 C 12.71875 -2.75 12.84375 -2.695312 12.9375 -2.59375 C 13.03125 -2.488281 13.078125 -2.367188 13.078125 -2.234375 L 13.078125 -0.515625 C 13.078125 -0.378906 13.03125 -0.257812 12.9375 -0.15625 C 12.84375 -0.0507812 12.71875 0 12.5625 0 L 1.8125 0 C 1.65625 0 1.53125 -0.0507812 1.4375 -0.15625 C 1.34375 -0.257812 1.296875 -0.378906 1.296875 -0.515625 C 1.316406 -1.085938 1.34375 -2.09375 1.375 -3.53125 C 1.40625 -4.976562 1.421875 -6.828125 1.421875 -9.078125 C 1.421875 -11.347656 1.40625 -13.203125 1.375 -14.640625 C 1.34375 -16.078125 1.316406 -17.078125 1.296875 -17.640625 C 1.296875 -17.785156 1.34375 -17.910156 1.4375 -18.015625 C 1.53125 -18.117188 1.65625 -18.171875 1.8125 -18.171875 L 12.5625 -18.171875 C 12.71875 -18.171875 12.84375 -18.117188 12.9375 -18.015625 C 13.03125 -17.910156 13.078125 -17.785156 13.078125 -17.640625 Z M 13.078125 -15.9375 "/></g></g></g><g fill="#000000" fill-opacity="1"><g transform="translate(91.390504, 148.220855)"><g><path d="M 12.4375 0 C 12.132812 0 11.957031 -0.140625 11.90625 -0.421875 C 11.875 -0.660156 11.8125 -1.003906 11.71875 -1.453125 C 11.632812 -1.898438 11.535156 -2.453125 11.421875 -3.109375 C 11.367188 -3.390625 11.203125 -3.53125 10.921875 -3.53125 L 6.234375 -3.53125 C 5.953125 -3.53125 5.773438 -3.390625 5.703125 -3.109375 C 5.585938 -2.453125 5.488281 -1.898438 5.40625 -1.453125 C 5.332031 -1.003906 5.269531 -0.660156 5.21875 -0.421875 C 5.1875 -0.140625 5.019531 0 4.71875 0 L 1.6875 0 C 1.507812 0 1.367188 -0.0625 1.265625 -0.1875 C 1.160156 -0.320312 1.132812 -0.46875 1.1875 -0.625 C 1.332031 -1.226562 1.566406 -2.242188 1.890625 -3.671875 C 2.222656 -5.097656 2.625 -6.898438 3.09375 -9.078125 C 3.59375 -11.421875 3.976562 -13.320312 4.25 -14.78125 C 4.53125 -16.238281 4.710938 -17.226562 4.796875 -17.75 C 4.847656 -18.03125 5.015625 -18.171875 5.296875 -18.171875 L 11.828125 -18.171875 C 12.128906 -18.171875 12.304688 -18.03125 12.359375 -17.75 C 12.441406 -17.226562 12.617188 -16.238281 12.890625 -14.78125 C 13.171875 -13.320312 13.554688 -11.421875 14.046875 -9.078125 C 14.503906 -6.898438 14.898438 -5.097656 15.234375 -3.671875 C 15.566406 -2.242188 15.8125 -1.226562 15.96875 -0.625 C 16 -0.46875 15.960938 -0.320312 15.859375 -0.1875 C 15.753906 -0.0625 15.625 0 15.46875 0 Z M 6.984375 -6.28125 L 10.171875 -6.28125 C 10.328125 -6.28125 10.457031 -6.335938 10.5625 -6.453125 C 10.664062 -6.578125 10.703125 -6.71875 10.671875 -6.875 C 10.597656 -7.21875 10.519531 -7.578125 10.4375 -7.953125 C 10.363281 -8.328125 10.285156 -8.703125 10.203125 -9.078125 C 9.941406 -10.304688 9.703125 -11.414062 9.484375 -12.40625 C 9.265625 -13.40625 9.070312 -14.269531 8.90625 -15 C 8.863281 -15.175781 8.753906 -15.265625 8.578125 -15.265625 C 8.398438 -15.265625 8.285156 -15.175781 8.234375 -15 C 8.078125 -14.269531 7.882812 -13.40625 7.65625 -12.40625 C 7.425781 -11.414062 7.179688 -10.304688 6.921875 -9.078125 C 6.835938 -8.703125 6.753906 -8.328125 6.671875 -7.953125 C 6.597656 -7.578125 6.53125 -7.21875 6.46875 -6.875 C 6.425781 -6.71875 6.457031 -6.578125 6.5625 -6.453125 C 6.664062 -6.335938 6.804688 -6.28125 6.984375 -6.28125 Z M 6.984375 -6.28125 "/></g></g></g><g fill="#000000" fill-opacity="1"><g transform="translate(108.54111, 148.220855)"><g><path d="M 13.9375 -12.484375 C 13.9375 -11.960938 13.914062 -11.46875 13.875 -11 C 13.832031 -10.53125 13.8125 -9.875 13.8125 -9.03125 C 13.8125 -8.445312 13.820312 -7.953125 13.84375 -7.546875 C 13.875 -7.148438 13.894531 -6.785156 13.90625 -6.453125 C 13.925781 -6.128906 13.9375 -5.785156 13.9375 -5.421875 C 13.9375 -4.316406 13.734375 -3.359375 13.328125 -2.546875 C 12.921875 -1.742188 12.257812 -1.117188 11.34375 -0.671875 C 10.425781 -0.222656 9.179688 0 7.609375 0 L 1.8125 0 C 1.65625 0 1.53125 -0.0507812 1.4375 -0.15625 C 1.34375 -0.257812 1.296875 -0.378906 1.296875 -0.515625 C 1.316406 -1.085938 1.34375 -2.09375 1.375 -3.53125 C 1.40625 -4.976562 1.421875 -6.828125 1.421875 -9.078125 C 1.421875 -11.347656 1.40625 -13.203125 1.375 -14.640625 C 1.34375 -16.078125 1.316406 -17.078125 1.296875 -17.640625 C 1.296875 -17.785156 1.34375 -17.910156 1.4375 -18.015625 C 1.53125 -18.117188 1.65625 -18.171875 1.8125 -18.171875 L 7.609375 -18.171875 C 9.160156 -18.171875 10.394531 -17.898438 11.3125 -17.359375 C 12.226562 -16.828125 12.882812 -16.140625 13.28125 -15.296875 C 13.6875 -14.460938 13.90625 -13.578125 13.9375 -12.640625 C 13.9375 -12.609375 13.9375 -12.566406 13.9375 -12.515625 C 13.9375 -12.492188 13.9375 -12.484375 13.9375 -12.484375 Z M 7.546875 -2.75 C 8.242188 -2.75 8.753906 -2.882812 9.078125 -3.15625 C 9.410156 -3.425781 9.617188 -3.765625 9.703125 -4.171875 C 9.796875 -4.578125 9.84375 -4.992188 9.84375 -5.421875 L 9.84375 -12.484375 C 9.84375 -12.617188 9.828125 -12.847656 9.796875 -13.171875 C 9.773438 -13.492188 9.695312 -13.828125 9.5625 -14.171875 C 9.4375 -14.515625 9.21875 -14.804688 8.90625 -15.046875 C 8.601562 -15.296875 8.1875 -15.421875 7.65625 -15.421875 L 5.78125 -15.421875 C 5.644531 -15.421875 5.523438 -15.367188 5.421875 -15.265625 C 5.316406 -15.171875 5.265625 -15.054688 5.265625 -14.921875 C 5.253906 -14.179688 5.242188 -13.328125 5.234375 -12.359375 C 5.222656 -11.390625 5.21875 -10.296875 5.21875 -9.078125 C 5.21875 -7.890625 5.222656 -6.804688 5.234375 -5.828125 C 5.242188 -4.847656 5.253906 -3.988281 5.265625 -3.25 C 5.265625 -3.101562 5.316406 -2.984375 5.421875 -2.890625 C 5.523438 -2.796875 5.644531 -2.75 5.78125 -2.75 Z M 7.546875 -2.75 "/></g></g></g><g fill="#000000" fill-opacity="1"><g transform="translate(123.771682, 148.220855)"><g><path d="M 11.75 -12.609375 C 11.238281 -11.429688 10.816406 -10.4375 10.484375 -9.625 C 10.148438 -8.8125 9.898438 -8.195312 9.734375 -7.78125 C 9.628906 -7.519531 9.578125 -7.253906 9.578125 -6.984375 C 9.554688 -6.640625 9.535156 -6.226562 9.515625 -5.75 C 9.503906 -5.269531 9.5 -4.726562 9.5 -4.125 C 9.5 -3.257812 9.507812 -2.523438 9.53125 -1.921875 C 9.5625 -1.328125 9.585938 -0.867188 9.609375 -0.546875 C 9.617188 -0.390625 9.570312 -0.257812 9.46875 -0.15625 C 9.363281 -0.0507812 9.234375 0 9.078125 0 L 6.125 0 C 5.96875 0 5.835938 -0.0507812 5.734375 -0.15625 C 5.628906 -0.257812 5.585938 -0.390625 5.609375 -0.546875 C 5.617188 -0.867188 5.632812 -1.328125 5.65625 -1.921875 C 5.6875 -2.523438 5.703125 -3.257812 5.703125 -4.125 C 5.703125 -4.726562 5.691406 -5.269531 5.671875 -5.75 C 5.660156 -6.226562 5.644531 -6.640625 5.625 -6.984375 C 5.625 -7.253906 5.570312 -7.519531 5.46875 -7.78125 C 5.300781 -8.195312 5.050781 -8.8125 4.71875 -9.625 C 4.394531 -10.4375 3.972656 -11.429688 3.453125 -12.609375 C 2.929688 -13.773438 2.476562 -14.757812 2.09375 -15.5625 C 1.71875 -16.363281 1.425781 -16.988281 1.21875 -17.4375 C 1.132812 -17.59375 1.144531 -17.753906 1.25 -17.921875 C 1.351562 -18.085938 1.5 -18.171875 1.6875 -18.171875 L 4.5625 -18.171875 C 4.8125 -18.171875 4.976562 -18.046875 5.0625 -17.796875 C 5.164062 -17.441406 5.359375 -16.828125 5.640625 -15.953125 C 5.929688 -15.078125 6.316406 -13.960938 6.796875 -12.609375 C 7.003906 -12.035156 7.203125 -11.492188 7.390625 -10.984375 C 7.429688 -10.878906 7.503906 -10.828125 7.609375 -10.828125 C 7.710938 -10.828125 7.78125 -10.878906 7.8125 -10.984375 C 8 -11.492188 8.195312 -12.035156 8.40625 -12.609375 C 8.894531 -13.960938 9.28125 -15.078125 9.5625 -15.953125 C 9.84375 -16.828125 10.035156 -17.441406 10.140625 -17.796875 C 10.234375 -18.046875 10.398438 -18.171875 10.640625 -18.171875 L 13.515625 -18.171875 C 13.710938 -18.171875 13.863281 -18.085938 13.96875 -17.921875 C 14.070312 -17.753906 14.078125 -17.59375 13.984375 -17.4375 C 13.773438 -16.988281 13.476562 -16.363281 13.09375 -15.5625 C 12.71875 -14.757812 12.269531 -13.773438 11.75 -12.609375 Z M 11.75 -12.609375 "/></g></g></g><g fill="#000000" fill-opacity="1"><g transform="translate(139.002254, 148.220855)"><g/></g></g><g fill="#000000" fill-opacity="1"><g transform="translate(146.734299, 148.220855)"><g><path d="M 13.078125 -15.9375 C 13.078125 -15.800781 13.03125 -15.679688 12.9375 -15.578125 C 12.84375 -15.472656 12.71875 -15.421875 12.5625 -15.421875 L 5.78125 -15.421875 C 5.644531 -15.421875 5.523438 -15.367188 5.421875 -15.265625 C 5.316406 -15.171875 5.265625 -15.054688 5.265625 -14.921875 C 5.265625 -14.390625 5.257812 -13.789062 5.25 -13.125 C 5.25 -12.46875 5.238281 -11.753906 5.21875 -10.984375 C 5.21875 -10.835938 5.269531 -10.710938 5.375 -10.609375 C 5.476562 -10.503906 5.597656 -10.453125 5.734375 -10.453125 L 11.21875 -10.453125 C 11.351562 -10.453125 11.472656 -10.398438 11.578125 -10.296875 C 11.679688 -10.191406 11.734375 -10.070312 11.734375 -9.9375 L 11.734375 -8.234375 C 11.734375 -8.085938 11.679688 -7.960938 11.578125 -7.859375 C 11.472656 -7.753906 11.351562 -7.703125 11.21875 -7.703125 L 5.734375 -7.703125 C 5.597656 -7.703125 5.476562 -7.648438 5.375 -7.546875 C 5.269531 -7.441406 5.21875 -7.320312 5.21875 -7.1875 C 5.238281 -6.40625 5.25 -5.6875 5.25 -5.03125 C 5.257812 -4.375 5.265625 -3.78125 5.265625 -3.25 C 5.265625 -3.101562 5.316406 -2.984375 5.421875 -2.890625 C 5.523438 -2.796875 5.644531 -2.75 5.78125 -2.75 L 12.5625 -2.75 C 12.71875 -2.75 12.84375 -2.695312 12.9375 -2.59375 C 13.03125 -2.488281 13.078125 -2.367188 13.078125 -2.234375 L 13.078125 -0.515625 C 13.078125 -0.378906 13.03125 -0.257812 12.9375 -0.15625 C 12.84375 -0.0507812 12.71875 0 12.5625 0 L 1.8125 0 C 1.65625 0 1.53125 -0.0507812 1.4375 -0.15625 C 1.34375 -0.257812 1.296875 -0.378906 1.296875 -0.515625 C 1.316406 -1.085938 1.34375 -2.09375 1.375 -3.53125 C 1.40625 -4.976562 1.421875 -6.828125 1.421875 -9.078125 C 1.421875 -11.347656 1.40625 -13.203125 1.375 -14.640625 C 1.34375 -16.078125 1.316406 -17.078125 1.296875 -17.640625 C 1.296875 -17.785156 1.34375 -17.910156 1.4375 -18.015625 C 1.53125 -18.117188 1.65625 -18.171875 1.8125 -18.171875 L 12.5625 -18.171875 C 12.71875 -18.171875 12.84375 -18.117188 12.9375 -18.015625 C 13.03125 -17.910156 13.078125 -17.785156 13.078125 -17.640625 Z M 13.078125 -15.9375 "/></g></g></g><g fill="#000000" fill-opacity="1"><g transform="translate(161.13458, 148.220855)"><g><path d="M 13.078125 -18.171875 C 13.265625 -18.171875 13.40625 -18.085938 13.5 -17.921875 C 13.601562 -17.753906 13.609375 -17.585938 13.515625 -17.421875 C 13.347656 -17.054688 13.109375 -16.550781 12.796875 -15.90625 C 12.484375 -15.269531 12.128906 -14.5 11.734375 -13.59375 C 11.285156 -12.59375 10.921875 -11.75 10.640625 -11.0625 C 10.359375 -10.382812 10.148438 -9.878906 10.015625 -9.546875 C 9.898438 -9.234375 9.898438 -8.921875 10.015625 -8.609375 C 10.148438 -8.265625 10.359375 -7.753906 10.640625 -7.078125 C 10.921875 -6.410156 11.285156 -5.570312 11.734375 -4.5625 C 12.128906 -3.664062 12.484375 -2.894531 12.796875 -2.25 C 13.109375 -1.613281 13.347656 -1.113281 13.515625 -0.75 C 13.609375 -0.582031 13.601562 -0.414062 13.5 -0.25 C 13.40625 -0.0820312 13.265625 0 13.078125 0 L 10.203125 0 C 9.960938 0 9.796875 -0.117188 9.703125 -0.359375 C 9.617188 -0.671875 9.453125 -1.179688 9.203125 -1.890625 C 8.953125 -2.597656 8.617188 -3.488281 8.203125 -4.5625 C 8.078125 -4.875 7.957031 -5.171875 7.84375 -5.453125 C 7.738281 -5.742188 7.632812 -6.019531 7.53125 -6.28125 C 7.507812 -6.351562 7.457031 -6.390625 7.375 -6.390625 C 7.300781 -6.390625 7.25 -6.351562 7.21875 -6.28125 C 7.113281 -6.019531 7.003906 -5.742188 6.890625 -5.453125 C 6.773438 -5.171875 6.660156 -4.875 6.546875 -4.5625 C 6.128906 -3.488281 5.796875 -2.597656 5.546875 -1.890625 C 5.304688 -1.179688 5.132812 -0.671875 5.03125 -0.359375 C 4.96875 -0.117188 4.804688 0 4.546875 0 L 1.6875 0 C 1.5 0 1.351562 -0.0820312 1.25 -0.25 C 1.144531 -0.414062 1.132812 -0.582031 1.21875 -0.75 C 1.40625 -1.113281 1.65625 -1.613281 1.96875 -2.25 C 2.28125 -2.894531 2.632812 -3.664062 3.03125 -4.5625 C 3.488281 -5.570312 3.851562 -6.410156 4.125 -7.078125 C 4.40625 -7.753906 4.601562 -8.265625 4.71875 -8.609375 C 4.84375 -8.921875 4.84375 -9.234375 4.71875 -9.546875 C 4.601562 -9.878906 4.40625 -10.382812 4.125 -11.0625 C 3.851562 -11.75 3.488281 -12.59375 3.03125 -13.59375 C 2.632812 -14.5 2.28125 -15.269531 1.96875 -15.90625 C 1.65625 -16.550781 1.40625 -17.054688 1.21875 -17.421875 C 1.132812 -17.585938 1.144531 -17.753906 1.25 -17.921875 C 1.351562 -18.085938 1.5 -18.171875 1.6875 -18.171875 L 4.546875 -18.171875 C 4.804688 -18.171875 4.96875 -18.046875 5.03125 -17.796875 C 5.132812 -17.492188 5.304688 -16.984375 5.546875 -16.265625 C 5.796875 -15.554688 6.128906 -14.664062 6.546875 -13.59375 C 6.660156 -13.28125 6.773438 -12.984375 6.890625 -12.703125 C 7.003906 -12.421875 7.113281 -12.148438 7.21875 -11.890625 C 7.25 -11.816406 7.300781 -11.78125 7.375 -11.78125 C 7.457031 -11.78125 7.507812 -11.816406 7.53125 -11.890625 C 7.632812 -12.148438 7.738281 -12.421875 7.84375 -12.703125 C 7.957031 -12.984375 8.078125 -13.28125 8.203125 -13.59375 C 8.617188 -14.664062 8.953125 -15.554688 9.203125 -16.265625 C 9.453125 -16.984375 9.617188 -17.492188 9.703125 -17.796875 C 9.796875 -18.046875 9.960938 -18.171875 10.203125 -18.171875 Z M 13.078125 -18.171875 "/></g></g></g><g fill="#000000" fill-opacity="1"><g transform="translate(175.898107, 148.220855)"><g><path d="M 5.34375 -0.515625 C 5.34375 -0.378906 5.296875 -0.257812 5.203125 -0.15625 C 5.109375 -0.0507812 4.984375 0 4.828125 0 L 1.8125 0 C 1.65625 0 1.53125 -0.0507812 1.4375 -0.15625 C 1.34375 -0.257812 1.296875 -0.378906 1.296875 -0.515625 C 1.316406 -1.085938 1.34375 -2.09375 1.375 -3.53125 C 1.40625 -4.976562 1.421875 -6.828125 1.421875 -9.078125 C 1.421875 -11.347656 1.40625 -13.203125 1.375 -14.640625 C 1.34375 -16.078125 1.316406 -17.078125 1.296875 -17.640625 C 1.296875 -17.785156 1.34375 -17.910156 1.4375 -18.015625 C 1.53125 -18.117188 1.65625 -18.171875 1.8125 -18.171875 L 4.828125 -18.171875 C 4.984375 -18.171875 5.109375 -18.117188 5.203125 -18.015625 C 5.296875 -17.910156 5.34375 -17.785156 5.34375 -17.640625 C 5.332031 -17.078125 5.304688 -16.078125 5.265625 -14.640625 C 5.234375 -13.203125 5.21875 -11.347656 5.21875 -9.078125 C 5.21875 -6.828125 5.234375 -4.976562 5.265625 -3.53125 C 5.304688 -2.09375 5.332031 -1.085938 5.34375 -0.515625 Z M 5.34375 -0.515625 "/></g></g></g><g fill="#000000" fill-opacity="1"><g transform="translate(182.540399, 148.220855)"><g><path d="M 5.390625 -13.15625 C 5.390625 -12.625 5.597656 -12.195312 6.015625 -11.875 C 6.429688 -11.550781 6.972656 -11.269531 7.640625 -11.03125 C 8.304688 -10.800781 9.007812 -10.554688 9.75 -10.296875 C 10.5 -10.046875 11.207031 -9.710938 11.875 -9.296875 C 12.539062 -8.890625 13.082031 -8.34375 13.5 -7.65625 C 13.914062 -6.976562 14.125 -6.097656 14.125 -5.015625 C 14.125 -3.898438 13.921875 -2.945312 13.515625 -2.15625 C 13.117188 -1.375 12.457031 -0.773438 11.53125 -0.359375 C 10.601562 0.0546875 9.363281 0.265625 7.8125 0.265625 C 6.320312 0.265625 5.109375 0.0234375 4.171875 -0.453125 C 3.242188 -0.941406 2.550781 -1.582031 2.09375 -2.375 C 1.632812 -3.164062 1.367188 -4 1.296875 -4.875 C 1.273438 -5.019531 1.316406 -5.144531 1.421875 -5.25 C 1.523438 -5.363281 1.65625 -5.421875 1.8125 -5.421875 L 4.875 -5.421875 C 5.1875 -5.421875 5.351562 -5.265625 5.375 -4.953125 C 5.40625 -4.640625 5.492188 -4.289062 5.640625 -3.90625 C 5.785156 -3.53125 6.023438 -3.195312 6.359375 -2.90625 C 6.703125 -2.625 7.171875 -2.484375 7.765625 -2.484375 C 8.453125 -2.484375 8.957031 -2.597656 9.28125 -2.828125 C 9.601562 -3.066406 9.8125 -3.378906 9.90625 -3.765625 C 10 -4.160156 10.046875 -4.578125 10.046875 -5.015625 C 10.046875 -5.566406 9.832031 -6.003906 9.40625 -6.328125 C 8.976562 -6.660156 8.429688 -6.941406 7.765625 -7.171875 C 7.109375 -7.410156 6.40625 -7.660156 5.65625 -7.921875 C 4.914062 -8.179688 4.210938 -8.515625 3.546875 -8.921875 C 2.890625 -9.328125 2.347656 -9.863281 1.921875 -10.53125 C 1.503906 -11.207031 1.296875 -12.082031 1.296875 -13.15625 C 1.296875 -14.257812 1.5 -15.207031 1.90625 -16 C 2.3125 -16.789062 2.972656 -17.390625 3.890625 -17.796875 C 4.804688 -18.210938 6.050781 -18.421875 7.625 -18.421875 C 9.101562 -18.421875 10.289062 -18.175781 11.1875 -17.6875 C 12.082031 -17.207031 12.742188 -16.570312 13.171875 -15.78125 C 13.609375 -15 13.863281 -14.164062 13.9375 -13.28125 C 13.9375 -13.144531 13.890625 -13.019531 13.796875 -12.90625 C 13.703125 -12.800781 13.578125 -12.75 13.421875 -12.75 L 10.359375 -12.75 C 10.046875 -12.75 9.875 -12.898438 9.84375 -13.203125 C 9.820312 -13.515625 9.753906 -13.859375 9.640625 -14.234375 C 9.523438 -14.617188 9.316406 -14.953125 9.015625 -15.234375 C 8.710938 -15.523438 8.269531 -15.671875 7.6875 -15.671875 C 6.988281 -15.671875 6.472656 -15.550781 6.140625 -15.3125 C 5.816406 -15.082031 5.609375 -14.773438 5.515625 -14.390625 C 5.429688 -14.003906 5.390625 -13.59375 5.390625 -13.15625 Z M 5.390625 -13.15625 "/></g></g></g><g fill="#000000" fill-opacity="1"><g transform="translate(197.978532, 148.220855)"><g><path d="M 13.984375 -15.9375 C 13.984375 -15.800781 13.929688 -15.679688 13.828125 -15.578125 C 13.722656 -15.472656 13.601562 -15.421875 13.46875 -15.421875 L 10.09375 -15.421875 C 9.957031 -15.421875 9.84375 -15.367188 9.75 -15.265625 C 9.65625 -15.171875 9.609375 -15.054688 9.609375 -14.921875 C 9.585938 -14.179688 9.570312 -13.328125 9.5625 -12.359375 C 9.550781 -11.390625 9.546875 -10.296875 9.546875 -9.078125 C 9.546875 -6.828125 9.554688 -4.976562 9.578125 -3.53125 C 9.609375 -2.09375 9.632812 -1.085938 9.65625 -0.515625 C 9.675781 -0.378906 9.632812 -0.257812 9.53125 -0.15625 C 9.425781 -0.0507812 9.300781 0 9.15625 0 L 6.125 0 C 5.988281 0 5.867188 -0.0507812 5.765625 -0.15625 C 5.660156 -0.257812 5.609375 -0.378906 5.609375 -0.515625 C 5.640625 -1.085938 5.664062 -2.09375 5.6875 -3.53125 C 5.71875 -4.976562 5.734375 -6.828125 5.734375 -9.078125 C 5.734375 -10.296875 5.726562 -11.390625 5.71875 -12.359375 C 5.707031 -13.328125 5.695312 -14.179688 5.6875 -14.921875 C 5.6875 -15.054688 5.632812 -15.171875 5.53125 -15.265625 C 5.4375 -15.367188 5.316406 -15.421875 5.171875 -15.421875 L 1.8125 -15.421875 C 1.675781 -15.421875 1.554688 -15.472656 1.453125 -15.578125 C 1.347656 -15.679688 1.296875 -15.800781 1.296875 -15.9375 L 1.296875 -17.640625 C 1.296875 -17.785156 1.347656 -17.910156 1.453125 -18.015625 C 1.554688 -18.117188 1.675781 -18.171875 1.8125 -18.171875 L 13.46875 -18.171875 C 13.601562 -18.171875 13.722656 -18.117188 13.828125 -18.015625 C 13.929688 -17.910156 13.984375 -17.785156 13.984375 -17.640625 Z M 13.984375 -15.9375 "/></g></g></g><g fill="#000000" fill-opacity="1"><g transform="translate(213.260993, 148.220855)"><g><path d="M 5.34375 -0.515625 C 5.34375 -0.378906 5.296875 -0.257812 5.203125 -0.15625 C 5.109375 -0.0507812 4.984375 0 4.828125 0 L 1.8125 0 C 1.65625 0 1.53125 -0.0507812 1.4375 -0.15625 C 1.34375 -0.257812 1.296875 -0.378906 1.296875 -0.515625 C 1.316406 -1.085938 1.34375 -2.09375 1.375 -3.53125 C 1.40625 -4.976562 1.421875 -6.828125 1.421875 -9.078125 C 1.421875 -11.347656 1.40625 -13.203125 1.375 -14.640625 C 1.34375 -16.078125 1.316406 -17.078125 1.296875 -17.640625 C 1.296875 -17.785156 1.34375 -17.910156 1.4375 -18.015625 C 1.53125 -18.117188 1.65625 -18.171875 1.8125 -18.171875 L 4.828125 -18.171875 C 4.984375 -18.171875 5.109375 -18.117188 5.203125 -18.015625 C 5.296875 -17.910156 5.34375 -17.785156 5.34375 -17.640625 C 5.332031 -17.078125 5.304688 -16.078125 5.265625 -14.640625 C 5.234375 -13.203125 5.21875 -11.347656 5.21875 -9.078125 C 5.21875 -6.828125 5.234375 -4.976562 5.265625 -3.53125 C 5.304688 -2.09375 5.332031 -1.085938 5.34375 -0.515625 Z M 5.34375 -0.515625 "/></g></g></g><g fill="#000000" fill-opacity="1"><g transform="translate(219.903285, 148.220855)"><g><path d="M 14.09375 -9.078125 C 14.09375 -6.828125 14.101562 -4.976562 14.125 -3.53125 C 14.15625 -2.09375 14.1875 -1.085938 14.21875 -0.515625 C 14.21875 -0.378906 14.164062 -0.257812 14.0625 -0.15625 C 13.957031 -0.0507812 13.835938 0 13.703125 0 L 8.25 0 C 7.9375 0 7.765625 -0.144531 7.734375 -0.4375 C 7.660156 -0.976562 7.503906 -1.972656 7.265625 -3.421875 C 7.035156 -4.878906 6.722656 -6.765625 6.328125 -9.078125 C 6.210938 -9.753906 6.097656 -10.390625 5.984375 -10.984375 C 5.867188 -11.585938 5.757812 -12.148438 5.65625 -12.671875 C 5.632812 -12.804688 5.5625 -12.863281 5.4375 -12.84375 C 5.3125 -12.832031 5.25 -12.765625 5.25 -12.640625 C 5.25 -12.117188 5.242188 -11.5625 5.234375 -10.96875 C 5.222656 -10.382812 5.21875 -9.753906 5.21875 -9.078125 C 5.21875 -6.828125 5.234375 -4.976562 5.265625 -3.53125 C 5.304688 -2.09375 5.332031 -1.085938 5.34375 -0.515625 C 5.34375 -0.378906 5.296875 -0.257812 5.203125 -0.15625 C 5.109375 -0.0507812 4.984375 0 4.828125 0 L 1.8125 0 C 1.65625 0 1.53125 -0.0507812 1.4375 -0.15625 C 1.34375 -0.257812 1.296875 -0.378906 1.296875 -0.515625 C 1.316406 -1.085938 1.34375 -2.09375 1.375 -3.53125 C 1.40625 -4.976562 1.421875 -6.828125 1.421875 -9.078125 C 1.421875 -11.347656 1.40625 -13.203125 1.375 -14.640625 C 1.34375 -16.078125 1.316406 -17.078125 1.296875 -17.640625 C 1.296875 -17.785156 1.34375 -17.910156 1.4375 -18.015625 C 1.53125 -18.117188 1.65625 -18.171875 1.8125 -18.171875 L 7.265625 -18.171875 C 7.554688 -18.171875 7.726562 -18.019531 7.78125 -17.71875 C 7.851562 -17.207031 8 -16.21875 8.21875 -14.75 C 8.445312 -13.289062 8.769531 -11.398438 9.1875 -9.078125 C 9.3125 -8.421875 9.425781 -7.789062 9.53125 -7.1875 C 9.644531 -6.582031 9.75 -6.019531 9.84375 -5.5 C 9.875 -5.363281 9.953125 -5.300781 10.078125 -5.3125 C 10.210938 -5.332031 10.28125 -5.40625 10.28125 -5.53125 C 10.28125 -6.050781 10.28125 -6.609375 10.28125 -7.203125 C 10.289062 -7.796875 10.296875 -8.421875 10.296875 -9.078125 C 10.296875 -11.347656 10.28125 -13.203125 10.25 -14.640625 C 10.21875 -16.078125 10.191406 -17.078125 10.171875 -17.640625 C 10.148438 -17.785156 10.191406 -17.910156 10.296875 -18.015625 C 10.398438 -18.117188 10.523438 -18.171875 10.671875 -18.171875 L 13.703125 -18.171875 C 13.835938 -18.171875 13.957031 -18.117188 14.0625 -18.015625 C 14.164062 -17.910156 14.21875 -17.785156 14.21875 -17.640625 C 14.1875 -17.078125 14.15625 -16.078125 14.125 -14.640625 C 14.101562 -13.203125 14.09375 -11.347656 14.09375 -9.078125 Z M 14.09375 -9.078125 "/></g></g></g><g fill="#000000" fill-opacity="1"><g transform="translate(235.419262, 148.220855)"><g><path d="M 7.65625 -9.078125 C 7.65625 -9.222656 7.703125 -9.347656 7.796875 -9.453125 C 7.890625 -9.554688 8.007812 -9.609375 8.15625 -9.609375 L 13.4375 -9.609375 C 13.582031 -9.609375 13.703125 -9.554688 13.796875 -9.453125 C 13.890625 -9.347656 13.9375 -9.222656 13.9375 -9.078125 L 13.9375 -5.46875 C 13.9375 -4.363281 13.738281 -3.382812 13.34375 -2.53125 C 12.945312 -1.675781 12.285156 -1 11.359375 -0.5 C 10.429688 -0.0078125 9.1875 0.234375 7.625 0.234375 C 6.039062 0.234375 4.785156 -0.0390625 3.859375 -0.59375 C 2.929688 -1.144531 2.269531 -1.859375 1.875 -2.734375 C 1.488281 -3.609375 1.296875 -4.519531 1.296875 -5.46875 C 1.296875 -5.832031 1.300781 -6.175781 1.3125 -6.5 C 1.332031 -6.832031 1.351562 -7.195312 1.375 -7.59375 C 1.40625 -8 1.421875 -8.492188 1.421875 -9.078125 C 1.421875 -9.671875 1.40625 -10.164062 1.375 -10.5625 C 1.351562 -10.957031 1.332031 -11.316406 1.3125 -11.640625 C 1.300781 -11.972656 1.296875 -12.320312 1.296875 -12.6875 C 1.296875 -13.800781 1.5 -14.785156 1.90625 -15.640625 C 2.3125 -16.492188 2.972656 -17.164062 3.890625 -17.65625 C 4.804688 -18.15625 6.050781 -18.40625 7.625 -18.40625 C 9.101562 -18.40625 10.289062 -18.15625 11.1875 -17.65625 C 12.082031 -17.164062 12.742188 -16.53125 13.171875 -15.75 C 13.609375 -14.96875 13.863281 -14.140625 13.9375 -13.265625 C 13.9375 -13.109375 13.890625 -12.972656 13.796875 -12.859375 C 13.703125 -12.742188 13.578125 -12.6875 13.421875 -12.6875 L 10.359375 -12.6875 C 10.046875 -12.6875 9.875 -12.851562 9.84375 -13.1875 C 9.820312 -13.476562 9.753906 -13.816406 9.640625 -14.203125 C 9.523438 -14.597656 9.316406 -14.9375 9.015625 -15.21875 C 8.710938 -15.507812 8.269531 -15.65625 7.6875 -15.65625 C 6.988281 -15.65625 6.472656 -15.5 6.140625 -15.1875 C 5.816406 -14.875 5.609375 -14.488281 5.515625 -14.03125 C 5.429688 -13.570312 5.390625 -13.125 5.390625 -12.6875 L 5.390625 -5.46875 C 5.390625 -5.320312 5.398438 -5.085938 5.421875 -4.765625 C 5.453125 -4.441406 5.53125 -4.109375 5.65625 -3.765625 C 5.789062 -3.421875 6.007812 -3.125 6.3125 -2.875 C 6.625 -2.632812 7.046875 -2.515625 7.578125 -2.515625 C 8.253906 -2.515625 8.773438 -2.671875 9.140625 -2.984375 C 9.503906 -3.296875 9.742188 -3.679688 9.859375 -4.140625 C 9.984375 -4.597656 10.046875 -5.039062 10.046875 -5.46875 C 10.046875 -5.75 10.046875 -6.046875 10.046875 -6.359375 C 10.023438 -6.492188 9.96875 -6.609375 9.875 -6.703125 C 9.78125 -6.804688 9.664062 -6.859375 9.53125 -6.859375 L 8.15625 -6.859375 C 8.007812 -6.859375 7.890625 -6.90625 7.796875 -7 C 7.703125 -7.09375 7.65625 -7.21875 7.65625 -7.375 Z M 7.65625 -9.078125 "/></g></g></g></svg>